<svg width="550" height="300" viewBox="0 0 550 300" fill="none" xmlns="http://www.w3.org/2000/svg">
<path fill-rule="evenodd" clip-rule="evenodd" d="M154.499 147.977V206.954H168.98H183.461V147.977V89H168.98H154.499V147.977ZM74.1665 163.433V206.954H88.6471H103.128V163.433V119.913H88.6471H74.1665V163.433ZM354.661 120.445C353.257 120.722 351.749 121.571 350.575 122.747C348.761 124.564 348.096 126.45 348.093 129.785L348.092 131.28L353.996 131.354C358.887 131.415 360.078 131.479 360.934 131.723C362.392 132.139 363.606 132.724 364.327 133.358C364.667 133.657 364.993 133.902 365.051 133.902C365.11 133.902 365.158 130.832 365.158 127.08V120.259L360.288 120.278C357.61 120.288 355.077 120.363 354.661 120.445ZM114.333 172.155V206.954H128.814H143.294V172.155V137.356H128.814H114.333V172.155ZM239.659 137.816C236.725 138.103 233.698 138.7 231.318 139.459C229.082 140.172 225.64 141.89 223.768 143.226C221.967 144.511 219.224 147.31 217.98 149.129C215.385 152.926 213.666 157.974 213.119 163.409C213.005 164.545 212.939 172.875 212.939 186.248V207.299H221.379H229.818L229.882 186.186C229.953 162.958 229.907 163.972 231.027 160.711C231.695 158.768 232.455 157.54 233.892 156.083C236.831 153.105 242.059 151.93 247.675 152.986C252.684 153.927 255.842 157.04 257.134 162.311C257.736 164.762 257.76 165.705 257.76 186.565V207.299H266.293H274.826V186.843C274.826 173.935 274.759 165.572 274.644 164.177C274.005 156.444 271.437 150.348 266.907 145.807C262.492 141.382 256.765 138.847 249.175 137.957C247.213 137.728 241.436 137.641 239.659 137.816ZM308.097 137.951C296.062 139.684 286.746 147.048 282.136 158.473C280.368 162.855 279.505 167.215 279.355 172.526C279.08 182.259 281.494 190.575 286.552 197.319C288.178 199.486 291.25 202.49 293.449 204.062C295.462 205.5 299.305 207.441 301.719 208.238C309.144 210.69 318.137 210.565 324.99 207.913C334.744 204.139 341.315 196.328 343.514 185.893C343.756 184.745 343.954 183.729 343.954 183.635C343.954 183.523 341.097 183.479 335.74 183.508L327.525 183.553L327.119 185.107C326.446 187.688 325.517 189.358 323.798 191.074C322.577 192.294 322.034 192.691 320.682 193.358C318.598 194.385 316.672 194.856 314.029 194.984C308.071 195.273 303.338 193.131 299.997 188.632C295.318 182.331 294.346 171.48 297.709 163.09C299.461 158.72 302.77 155.23 306.542 153.775C308.698 152.943 310.316 152.669 313.01 152.68C315.029 152.688 315.706 152.762 317.148 153.137C322.298 154.474 325.41 157.528 326.608 162.42L327.004 164.038L335.22 164.083C339.74 164.107 343.437 164.061 343.437 163.981C343.437 163.391 342.43 159.043 341.958 157.597C338.599 147.304 330.397 140.304 319.228 138.198C316.753 137.731 310.575 137.594 308.097 137.951ZM397.698 137.889C389.385 138.77 382.664 141.946 378.366 147.027C375.078 150.913 373.242 155.068 372.11 161.191C371.833 162.689 371.802 164.73 371.752 185.064L371.698 207.299H380.15H388.603V187.284C388.603 174.663 388.669 166.623 388.782 165.519C389.367 159.812 391.598 155.939 395.339 154.138C397.984 152.866 401.164 152.365 404.428 152.707C408.09 153.091 410.355 154.005 412.351 155.902C414.256 157.711 415.23 159.551 416.063 162.915C416.422 164.363 416.428 164.684 416.484 185.841L416.54 207.299H425.068H433.596L433.596 187.136C433.595 166.5 433.529 163.904 432.911 160.411C430.618 147.458 421.883 139.591 407.986 137.962C405.602 137.683 400.016 137.643 397.698 137.889ZM467.47 137.969C457.142 139.362 448.514 145.058 443.268 153.947C440.796 158.136 439.218 162.929 438.498 168.442C438.141 171.173 438.237 177.83 438.669 180.358C440.992 193.925 449.568 204.374 461.619 208.32C468.623 210.613 476.724 210.556 483.649 208.164C491.915 205.309 498.662 199.355 502.632 191.411C505.285 186.103 506.473 181.188 506.638 174.832C506.821 167.792 505.674 162.142 502.905 156.436C497.872 146.065 488.674 139.466 477.158 137.966C474.681 137.644 469.875 137.645 467.47 137.969ZM348.092 172.662V207.299H356.625H365.158L365.155 176.429C365.152 142.764 365.193 144.205 364.175 142.33C363.421 140.943 361.95 139.566 360.404 138.8L359.057 138.133L353.574 138.079L348.092 138.025V172.662ZM34 178.286V206.954H48.4806H62.9612V178.286V149.617H48.4806H34V178.286ZM477.234 153.127C480.217 154.028 482.156 155.155 484.171 157.159C491.414 164.364 492.539 178.249 486.618 187.356C484.199 191.078 480.724 193.554 476.389 194.645C474.573 195.102 470.147 195.057 468.328 194.562C461.868 192.807 457.364 188.247 455.408 181.483C454.67 178.928 454.405 176.91 454.399 173.795C454.393 170.479 454.689 168.478 455.613 165.592C457.551 159.54 461.542 155.118 466.576 153.445C468.91 152.67 469.698 152.568 472.901 152.626C475.376 152.671 475.938 152.736 477.234 153.127ZM508.606 194.883C507.401 195.088 505.809 195.946 505.028 196.813C503.959 197.998 503.508 199.212 503.503 200.913C503.5 202.229 503.559 202.505 504.062 203.528C504.734 204.897 505.653 205.773 507.153 206.476C508.076 206.909 508.486 206.998 509.588 207.005C510.316 207.01 511.223 206.925 511.602 206.816C513.41 206.296 515.165 204.674 515.737 202.994C516.129 201.844 516.076 199.75 515.625 198.542C514.649 195.929 511.649 194.366 508.606 194.883ZM511.21 196.254C512.97 196.744 514.446 198.82 514.446 200.807C514.446 203.541 512.764 205.498 510.239 205.7C507.299 205.937 505.063 203.773 505.092 200.719C505.121 197.567 508.104 195.39 511.21 196.254ZM507.594 197.907C507.433 197.978 507.378 198.769 507.378 201.01V204.018H508.06H508.742L508.793 202.852C508.843 201.689 508.845 201.686 509.374 201.634C510.12 201.561 510.623 202.042 510.874 203.068L511.085 203.931L511.904 203.984C512.354 204.013 512.722 204.013 512.721 203.984C512.71 203.547 511.958 201.629 511.682 201.335L511.314 200.942L511.675 200.827C512.173 200.669 512.597 199.791 512.466 199.191C512.407 198.925 512.164 198.523 511.924 198.297C511.528 197.924 511.322 197.884 509.649 197.85C508.637 197.83 507.712 197.855 507.594 197.907ZM510.654 199.182C510.843 199.372 510.998 199.605 510.998 199.7C510.998 200.119 510.289 200.564 509.619 200.564H508.93V199.7V198.837H509.619C510.079 198.837 510.424 198.952 510.654 199.182Z" fill="#172554"/>
</svg>
